<svg xmlns="http://www.w3.org/2000/svg" xmlns:xlink="http://www.w3.org/1999/xlink" viewBox="0 0 20.49 20"><defs><style>.cls-1{fill:url(#Degradado_sin_nombre_52);}.cls-2{fill:#db2878;}</style><linearGradient id="Degradado_sin_nombre_52" x1="2.18" y1="20.64" x2="18.34" y2="4.48" gradientUnits="userSpaceOnUse"><stop offset="0.02" stop-color="#095e2c"/><stop offset="0.17" stop-color="#1f793d"/><stop offset="0.35" stop-color="#32914b"/><stop offset="0.54" stop-color="#3fa356"/><stop offset="0.75" stop-color="#47ad5c"/><stop offset="1" stop-color="#4ab05e"/></linearGradient></defs><g id="Capa_2" data-name="Capa 2"><g id="Capa_2-2" data-name="Capa 2"><path class="cls-1" d="M11.09,7.36,7.85,11.9,6.63,13.6l2.51-.44L7.83,16.05C7.4,17,7,17.89,6.53,18.79a3.49,3.49,0,0,1-1,1.18l.51-2.53H3.74c.57-2.68,1-4.66,1.57-7.34H1.85c0-.73,0-1.84,0-2.73M0,6.67a1.16,1.16,0,0,0,0,.17L0,17.17a4.77,4.77,0,0,0,.05.66A2.59,2.59,0,0,0,2.5,20H17.75a3.77,3.77,0,0,0,.58,0,2.64,2.64,0,0,0,2.16-2.75c0-3.43,0-6.87,0-10.3,0-.1,0-.2,0-.32H20m-2.48,8.67c0-.38,0-.38.44-.38s.46,0,.46.43,0,.46-.49.46S17.56,15.77,17.56,15.26ZM18,16.51c.42,0,.44,0,.44.44s0,.47-.48.47-.43,0-.42-.54C17.56,16.53,17.58,16.51,18,16.51ZM12.62,19c-.58,0-.51.05-.51-.5,0-.39,0-.39.45-.39s.44,0,.44.46S13,19,12.62,19Zm-.19-1.57c-.31,0-.32,0-.32-.52s0-.39.44-.39.45,0,.45.44S13,17.43,12.43,17.42ZM14.36,19c-.44,0-.44,0-.44-.55,0-.34,0-.34.5-.34s.41,0,.41.49S14.83,19,14.36,19Zm0-1.57c-.44,0-.44,0-.44-.45s0-.45.42-.45.47,0,.47.36C14.83,17.4,14.81,17.42,14.38,17.42ZM14.55,13a.93.93,0,0,1-.65.77c-1.39.63-2.76,1.28-4.13,1.93a.72.72,0,0,1-.32.08L12.33,12l-.92-.34v0h3.45C14.75,12.07,14.61,12.51,14.55,13Zm1.73,6c-.55,0-.55,0-.56-.43s0-.46.38-.46.51,0,.52.47S16.62,19,16.28,19Zm.35-2c0,.45,0,.46-.57.45-.33,0-.34,0-.33-.59,0-.3,0-.33.52-.32S16.63,16.54,16.63,17Zm-.9-1.71c0-.38,0-.38.43-.38s.46,0,.46.44,0,.44-.5.44S15.73,15.75,15.73,15.26ZM16.2,10a.21.21,0,0,1-.16.13c-1.59,0-3.18,0-4.77,0l0,0c.14-.61.27-1.23.41-1.85.06-.27.06-.63.24-.77s.52-.06.8-.06h4.18C16.63,8.27,16.42,9.12,16.2,10ZM18,19c-.49,0-.49,0-.49-.47s0-.42.47-.42.45,0,.45.52C18.47,19,18.45,19,18,19Z"/><path class="cls-2" d="M4,1.72c0,.44.06.82.08,1.21A1.28,1.28,0,0,0,6,3.91a1.57,1.57,0,0,1-1-.53,1.64,1.64,0,0,1-.3-.69C4.55,2.14,4.54,1.58,4.51,1A1,1,0,0,1,5.58,0,1.05,1.05,0,0,1,6.66,1c0,.24,0,.48,0,.77h6.21c.37,0,.37,0,.39.39s0,.63.06.94a1.26,1.26,0,0,0,1.83,1,8.46,8.46,0,0,1-.84-.44,1.06,1.06,0,0,1-.43-.86c0-.5-.05-1-.09-1.49A1,1,0,0,1,14.37.16a1.16,1.16,0,0,1,1.34.3A1.42,1.42,0,0,1,15.9,1a5.13,5.13,0,0,1,0,.68c.14,0,.28,0,.43,0,.63,0,1.26,0,1.89,0A2.3,2.3,0,0,1,20.4,3.51a8.22,8.22,0,0,1,.07,1.57c0,.23,0,.47,0,.72H.06l0,0c0-.69,0-1.37,0-2A2.06,2.06,0,0,1,1.32,2a3.1,3.1,0,0,1,1.44-.32Z"/></g></g></svg>