<svg xmlns="http://www.w3.org/2000/svg" xmlns:xlink="http://www.w3.org/1999/xlink" viewBox="0 0 24.89 25.32"><defs><style>.cls-1{fill:url(#Degradado_sin_nombre_52);}.cls-2{fill:#db2878;}.cls-3{fill:#4ab05e;}</style><linearGradient id="Degradado_sin_nombre_52" x1="5.51" y1="20.64" x2="21.67" y2="4.48" gradientUnits="userSpaceOnUse"><stop offset="0.02" stop-color="#095e2c"/><stop offset="0.17" stop-color="#1f793d"/><stop offset="0.35" stop-color="#32914b"/><stop offset="0.54" stop-color="#3fa356"/><stop offset="0.75" stop-color="#47ad5c"/><stop offset="1" stop-color="#4ab05e"/></linearGradient></defs><g id="Capa_2" data-name="Capa 2"><g id="Capa_2-2" data-name="Capa 2"><path class="cls-1" d="M14.42,7.36c-1.07,1.51-2.16,3-3.24,4.54L10,13.6l2.51-.44-1.31,2.89c-.43.92-.84,1.84-1.3,2.74A3.49,3.49,0,0,1,8.91,20l.51-2.53H7.07c.58-2.68,1-4.66,1.57-7.34H5.18c0-.73,0-1.84,0-2.73m-1.83-.7a1.16,1.16,0,0,0,0,.17l0,10.33a4.77,4.77,0,0,0,0,.66A2.59,2.59,0,0,0,5.83,20H21.08a3.77,3.77,0,0,0,.58,0,2.64,2.64,0,0,0,2.16-2.75c0-3.43,0-6.87,0-10.3,0-.1,0-.2,0-.32h-.41m-2.48,8.67c0-.38,0-.38.45-.38s.45,0,.45.43,0,.46-.48.46S20.89,15.77,20.89,15.26Zm.47,1.25c.41,0,.43,0,.43.44s0,.47-.48.47-.42,0-.42-.54C20.89,16.53,20.92,16.51,21.36,16.51ZM16,19c-.58,0-.51.05-.51-.5,0-.39,0-.39.45-.39s.44,0,.44.46S16.33,19,16,19Zm-.19-1.57c-.31,0-.32,0-.32-.52s0-.39.44-.39.45,0,.45.44S16.33,17.43,15.76,17.42ZM17.7,19c-.45,0-.45,0-.45-.55,0-.34,0-.34.5-.34s.41,0,.41.49S18.16,19,17.7,19Zm0-1.57c-.43,0-.44,0-.44-.45s0-.45.42-.45.47,0,.47.36C18.16,17.4,18.15,17.42,17.71,17.42ZM17.88,13a.91.91,0,0,1-.65.77c-1.39.63-2.76,1.28-4.13,1.93a.71.71,0,0,1-.31.08L15.66,12l-.92-.34v0h3.44C18.08,12.07,18,12.51,17.88,13Zm1.74,6c-.56,0-.56,0-.56-.43s0-.46.37-.46.52,0,.52.47S20,19,19.62,19ZM20,17c0,.45,0,.46-.56.45-.33,0-.35,0-.34-.59,0-.3,0-.33.52-.32S20,16.54,20,17Zm-.9-1.71c0-.38,0-.38.43-.38s.46,0,.46.44,0,.44-.49.44S19.06,15.75,19.06,15.26Zm.48-5.3a.23.23,0,0,1-.17.13c-1.59,0-3.18,0-4.77,0l0,0c.14-.61.27-1.23.41-1.85.06-.27.06-.63.24-.77s.52-.06.8-.06h4.18Zm1.84,9c-.49,0-.49,0-.49-.47s0-.42.46-.42.45,0,.45.52C21.8,19,21.79,19,21.38,19Z" transform="translate(-0.34)"/><path class="cls-2" d="M7.3,1.72c0,.44.06.82.08,1.21a1.28,1.28,0,0,0,1.91,1,1.57,1.57,0,0,1-1-.53A1.62,1.62,0,0,1,8,2.69C7.88,2.14,7.87,1.58,7.84,1A1,1,0,0,1,8.92,0,1.05,1.05,0,0,1,10,1c0,.24,0,.48,0,.77H16.2c.38,0,.37,0,.4.39s0,.63.06.94a1.25,1.25,0,0,0,1.82,1,8.46,8.46,0,0,1-.84-.44,1,1,0,0,1-.42-.86c0-.5-.06-1-.1-1.49A1,1,0,0,1,17.7.16,1.16,1.16,0,0,1,19,.46a1.42,1.42,0,0,1,.19.58,5.13,5.13,0,0,1,0,.68l.43,0c.63,0,1.26,0,1.89,0a2.32,2.32,0,0,1,2.19,1.73,10.26,10.26,0,0,1,.07,1.57V5.8H3.39l0,0c0-.69,0-1.37,0-2A2.06,2.06,0,0,1,4.65,2a3.13,3.13,0,0,1,1.44-.32Z" transform="translate(-0.34)"/><path class="cls-2" d="M14.12,21.66h2l-.15.75H14.85l-.14.73h1.1l-.15.73H14.57l-.26,1.39h-.88Z" transform="translate(-0.34)"/><path class="cls-2" d="M16,25.26l.72-3.76h.87l-.71,3.76Z" transform="translate(-0.34)"/><path class="cls-2" d="M19.08,25.26c0-.14,0-.29,0-.44h0a.91.91,0,0,1-.78.5c-.46,0-.75-.36-.75-.9a1.73,1.73,0,0,1,1.8-1.84,3.13,3.13,0,0,1,.89.14L20,24.12a6,6,0,0,0-.1,1.14Zm.2-2-.16,0c-.41,0-.67.66-.67,1s.09.36.24.36.36-.18.46-.75Z" transform="translate(-0.34)"/><path class="cls-2" d="M20.48,24.52a1.58,1.58,0,0,0,.64.16c.18,0,.26-.08.26-.18s-.07-.18-.3-.29a.84.84,0,0,1-.51-.69c0-.56.48-.94,1.18-.94a1.48,1.48,0,0,1,.67.13l-.19.61a1.19,1.19,0,0,0-.48-.1c-.18,0-.3.06-.3.18s.09.16.27.25.56.39.56.72c0,.61-.51.94-1.23.94a1.46,1.46,0,0,1-.78-.19Z" transform="translate(-0.34)"/><path class="cls-2" d="M22.54,25.26l.71-3.76h.88l-.28,1.43h0a1,1,0,0,1,.75-.35c.42,0,.61.28.61.68a2.41,2.41,0,0,1-.06.5l-.28,1.5H24l.28-1.43a1.91,1.91,0,0,0,0-.32c0-.13-.05-.23-.18-.23s-.4.26-.49.73l-.24,1.25Z" transform="translate(-0.34)"/><path class="cls-3" d="M1.16,22.44H.34l.16-.78H3l-.15.78H2L1.5,25.26H.63Z" transform="translate(-0.34)"/><path class="cls-3" d="M5.31,22.64,5,24.39c-.06.32-.1.62-.14.87H4.06l0-.37h0a1.05,1.05,0,0,1-.83.44c-.43,0-.62-.27-.62-.7a3.61,3.61,0,0,1,0-.53L3,22.64h.87L3.58,24a2.63,2.63,0,0,0,0,.36c0,.12,0,.22.18.22s.39-.25.47-.7l.24-1.27Z" transform="translate(-0.34)"/><path class="cls-3" d="M5.4,25.26l.3-1.59c.07-.38.11-.8.14-1h.75c0,.16,0,.32,0,.49h0a1,1,0,0,1,.79-.55H7.5l-.17.85H7.21c-.46,0-.66.38-.75.85l-.19,1Z" transform="translate(-0.34)"/><path class="cls-3" d="M7.4,25.26l.33-1.75c.07-.32.11-.62.15-.87h.76l0,.37h0a1,1,0,0,1,.84-.43c.45,0,.63.29.63.68a2.59,2.59,0,0,1-.05.47l-.29,1.53H8.88l.28-1.48a2.11,2.11,0,0,0,0-.26c0-.14,0-.24-.18-.24s-.4.26-.5.79l-.22,1.19Z" transform="translate(-0.34)"/><path class="cls-3" d="M13,23.62a1.56,1.56,0,0,1-1.51,1.7,1,1,0,0,1-1.07-1A1.57,1.57,0,0,1,12,22.58,1,1,0,0,1,13,23.62Zm-1.69.64c0,.22.08.4.29.4s.51-.66.51-1.06c0-.2-.08-.36-.28-.36S11.34,23.91,11.34,24.26Z" transform="translate(-0.34)"/></g></g></svg>